<svg xmlns="http://www.w3.org/2000/svg" width="98" height="79" viewBox="0 0 98 79">
    <g fill="none" fill-rule="nonzero">
        <path fill="#D9E021" d="M78.049 46.166L66.907 35.415a2.517 2.517 0 0 0-1.756-.703 2.498 2.498 0 0 0-1.814.761 2.537 2.537 0 0 0 0 3.57l6.634 6.4H55.707a2.537 2.537 0 0 0-2.517 2.362V48a2.537 2.537 0 0 0 2.517 2.498h14.244l-6.653 6.42a2.517 2.517 0 0 0 3.512 3.57l11.239-10.693a2.537 2.537 0 0 0 0-3.63z"/>
        <path fill="#4A4A4A" d="M77.132 21.463C75.18 16.351 67.746 0 48.02 0h-.488C32.41.195 24.937 10.615 23.22 15.785a23.551 23.551 0 0 0-1.464 4.703C6.946 23.668.624 38.693.156 48.624a29.58 29.58 0 0 0 8.059 20.722 29.268 29.268 0 0 0 21.814 8.703h42.049c.273 0 28.254-5.073 25.112-32.312-1.912-16.469-15.453-22.654-20.058-24.274zM71.61 72.507H30.03a23.57 23.57 0 0 1-17.796-6.985A23.805 23.805 0 0 1 5.678 48.78c.43-9.112 6.77-23.414 21.97-23.414h.293c16.157.195 21.854 10.049 23.883 16.995.722-1.307 3.18-1.151 3.18-1.151h2.167c-2.44-8.586-9.386-21.132-29.269-21.464h-.39c.205-.663.446-1.314.722-1.95 0-.118 4.254-12.118 19.278-12.313h.41c18.946 0 24.058 18.068 24.254 18.849a2.81 2.81 0 0 0 1.95 1.95c.625.157 15.61 4.079 17.386 19.981 2.712 22.03-19.414 26.127-19.902 26.244z"/>
    </g>
</svg>
