<svg id="Capa_1" data-name="Capa 1" xmlns="http://www.w3.org/2000/svg" viewBox="0 0 333.99 72.02"><defs><style>.cls-1{fill:#004d80;}.cls-2{fill:#d00054;}</style></defs><title>Mesa de trabajo 5</title><path class="cls-1" d="M127.62,16.16V64.08H114.8V16.16H97.61V5.1h47.12V16.16Z"/><path class="cls-1" d="M159,63a21.87,21.87,0,0,1-9.47-7.38q-4-5.2-4-13.6t4-13.55a22.26,22.26,0,0,1,9.57-7.34A29,29,0,0,1,169.65,19a24.74,24.74,0,0,1,11.06,2.58A21.55,21.55,0,0,1,192.81,41c0,1.4,0,2.61-.08,3.64a17.44,17.44,0,0,1-.17,1.93h-35a8.29,8.29,0,0,0,4.84,6.37,18.18,18.18,0,0,0,7.26,1.7,13.23,13.23,0,0,0,6.94-1.58A20.11,20.11,0,0,0,181,49.47l9.36,5.41Q182.8,65.2,169.65,65.21A29.16,29.16,0,0,1,159,63Zm2.46-31a8.69,8.69,0,0,0-3.54,6h22.18a8.65,8.65,0,0,0-1.61-4,10.79,10.79,0,0,0-8.88-4.44A12.86,12.86,0,0,0,161.42,32Z"/><path class="cls-1" d="M200.07,58.19l6.29-8.39a28.43,28.43,0,0,0,6.78,3.38,22.5,22.5,0,0,0,7.58,1.38,8.52,8.52,0,0,0,4.56-1.13,3.3,3.3,0,0,0,1.81-2.83c0-1.13-.68-1.92-2.05-2.38a24.36,24.36,0,0,0-4-1l-2.5-.37A59.13,59.13,0,0,1,210.19,45a15.68,15.68,0,0,1-6.37-4,10.85,10.85,0,0,1-2.87-8c0-5.6,2-9.33,6.1-11.22a28.84,28.84,0,0,1,12.22-2.82A29.5,29.5,0,0,1,229,20.43a32,32,0,0,1,8.79,4.84l-6.29,8.23a38.08,38.08,0,0,0-6.21-3,18.16,18.16,0,0,0-6.37-1.13,9,9,0,0,0-3.92.89,2.7,2.7,0,0,0-1.89,2.42c0,1.29.87,2.2,2.62,2.74a35.3,35.3,0,0,0,5.77,1.21,73,73,0,0,1,9,2,13.41,13.41,0,0,1,6,3.91q2.63,2.87,2.62,8.11,0,6.93-4.76,10.68c-3.17,2.51-7.66,3.75-13.47,3.75A32.4,32.4,0,0,1,200.07,58.19Z"/><path class="cls-1" d="M263.64,48.27a10.21,10.21,0,0,0,1,4.71c.64,1.27,2.15,1.9,4.51,1.9a27.26,27.26,0,0,0,3.07-.16V64.88a48,48,0,0,1-5.41.33,33.75,33.75,0,0,1-8.35-.85,8.68,8.68,0,0,1-5-3.27q-1.77-2.42-1.77-6.94V29.55h-5.41V19h5.41V7.12h11.94V19h8.87V29.55h-8.87Z"/><path class="cls-1" d="M315.43,59.64a12.79,12.79,0,0,1-5.28,3.75A20.12,20.12,0,0,1,302,65.05,22.47,22.47,0,0,1,290.06,62a20.29,20.29,0,0,1-7.71-8.35,25.75,25.75,0,0,1-2.66-11.74,25.81,25.81,0,0,1,2.66-11.74,20.36,20.36,0,0,1,7.71-8.35A22.47,22.47,0,0,1,302,18.74a19.61,19.61,0,0,1,8.1,1.57,13.57,13.57,0,0,1,5.37,4v-4.6h11.94V64.08H315.43ZM312.6,32.82a13,13,0,0,0-17.78,0,12.77,12.77,0,0,0-3.27,9.07,12.51,12.51,0,0,0,3.35,9,11.58,11.58,0,0,0,8.83,3.55q5.65,0,8.91-3.35t3.27-9.16A12.66,12.66,0,0,0,312.6,32.82Z"/><path class="cls-2" d="M66.67,20.93a23.7,23.7,0,0,0-44.5,0,23.7,23.7,0,0,0,6,45.86h.05q1,.09,2.07.09c.71,0,1.42,0,2.12-.09H56.49c.7.06,1.4.09,2.11.09a23.7,23.7,0,0,0,8.07-46Zm5.84,24.74A14.07,14.07,0,0,1,59.12,57.26c-3.46.08-6.92.09-10.37,0a14.06,14.06,0,0,1-13.6-13.62c-.1-3.14-2-5.15-4.89-5.1s-4.71,2.17-4.66,5.32a23.08,23.08,0,0,0,3.21,11.3l1.27,2.1a13.46,13.46,0,0,1-10.23-4.74A13.39,13.39,0,0,1,17.38,38c2.17-5.35,6.36-8.45,12.1-8.73A14,14,0,0,1,44.32,41.68c.08.73.06,1.47.17,2.2a4.64,4.64,0,0,0,4.59,4.18c3.23.08,6.46.07,9.69,0a4.66,4.66,0,0,0,4.62-4.85,4.61,4.61,0,0,0-4.78-4.67c-1.64,0-3.28,0-5,0-2.69-10.18-9.12-16.43-19.39-18.65,1.95-3.41,8.15-5.64,12.8-4.65,6.69,1.41,10.76,6.18,11.64,13.68,1.51.34,3.07.57,4.54,1.06A14,14,0,0,1,72.51,45.67Z"/></svg>