<svg xmlns="http://www.w3.org/2000/svg" width="87" height="78" viewBox="0 0 87 78">
    <g fill="#CCC" fill-rule="nonzero">
        <path d="M12.835 29.104L2.278 24.74a2.632 2.632 0 1 1 2-4.87l10.557 4.366a2.609 2.609 0 0 1-2 4.817v.052zM19.496 21.904a2.591 2.591 0 0 1-1.844-.765l-8.087-8.087a2.609 2.609 0 0 1 3.687-3.617l8.087 8.087a2.609 2.609 0 0 1-1.843 4.452v-.07zM27.826 16.06a2.609 2.609 0 0 1-3.478-1.408L20.104 4.078a2.609 2.609 0 0 1 4.818-2l4.365 10.557a2.609 2.609 0 0 1-1.46 3.426z"/>
        <path d="M86.487 41.957c-1.74-14.644-13.722-20.105-17.809-21.548-1.739-4.54-8.348-19.13-25.86-19.13h-.435A24.678 24.678 0 0 0 30.73 4.216l1.879 4.54c3-1.7 6.395-2.582 9.843-2.557h.365c16.835 0 21.374 16.052 21.548 16.748a2.487 2.487 0 0 0 1.74 1.739c.556.14 13.808 3.617 15.443 17.756.517 3.655.08 7.382-1.27 10.818a2.522 2.522 0 0 0-.121.574 2.991 2.991 0 0 0 0 .4v17.252l-15.514-5.635a2.383 2.383 0 0 0-.382 0 2.313 2.313 0 0 0-.452-.087H26.817a21.826 21.826 0 0 1-13.13-3.93 19.13 19.13 0 0 1-2.696-2.278 19.635 19.635 0 0 1-1.548-1.844 21.043 21.043 0 0 1-4.226-12.956c0-.54 0-1.096.157-1.74a25.86 25.86 0 0 1 3.774-10.434l-4.626-1.81a31.443 31.443 0 0 0-3.757 9.88 27.826 27.826 0 0 0-.504 3.895v1.165a26.435 26.435 0 0 0 7.165 17.252 26.087 26.087 0 0 0 19.374 7.74h36.522l18.417 6.678a2.452 2.452 0 0 0 3.304-2.313V54.652a26.365 26.365 0 0 0 1.444-12.695z"/>
    </g>
</svg>
