<svg xmlns="http://www.w3.org/2000/svg" width="100" height="80" viewBox="0 0 100 80">
    <g fill="#CCC" fill-rule="nonzero">
        <path d="M99.62 46.84C97.66 30 83.78 23.64 79.06 22 77.18 16.82 69.62.46 50 0 30.38.44 22.82 16.8 20.94 22 16.22 23.66 2.34 30 .4 46.86-2.84 74.76 25.84 79.9 26.12 80h47.74c.3-.1 28.98-5.24 25.76-33.16zM73.4 74.32H26.6C26.1 74.18 3.44 70 6 47.48a23.86 23.86 0 0 1 15.26-19.6 20.94 20.94 0 0 1 2.56-.88l1.24-.3c.34-.98.74-2 1.12-2.88.24-.58.5-1.16.72-1.66.28-.68.64-1.46 1.08-2.28a24.88 24.88 0 0 1 22-14.14 24.88 24.88 0 0 1 22 14.14c.44.84.8 1.6 1.08 2.28l.72 1.66c.38.92.78 2 1.12 2.88l1.24.3a20.9 20.9 0 0 1 2.58.88A23.86 23.86 0 0 1 94 47.48C96.56 70 73.9 74.18 73.4 74.32z"/>
        <path d="M59.5 45.26a7.74 7.74 0 0 0-1.76-2.64 10.44 10.44 0 0 0-2.74-2 35 35 0 0 0-4-1.64 18.12 18.12 0 0 1-3.5-1.52 3.7 3.7 0 0 1-1.3-1.18 3.8 3.8 0 0 1-.34-1.84 3.3 3.3 0 0 1 1.12-2.62 4.94 4.94 0 0 1 3.42-1.08A4.36 4.36 0 0 1 53.76 32 5.1 5.1 0 0 1 55 35.64a2 2 0 0 0 2 2h1a2 2 0 0 0 2-2 10 10 0 0 0-2.34-6.94 8.52 8.52 0 0 0-4.78-2.7v-1.6a2 2 0 0 0-2-2h-1a2 2 0 0 0-2 2V26a9.06 9.06 0 0 0-4.46 2.22 8.14 8.14 0 0 0-2.6 6.26 8.62 8.62 0 0 0 .9 4 8.26 8.26 0 0 0 2.7 2.96 20.6 20.6 0 0 0 4.82 2.22 22.32 22.32 0 0 1 4 1.76 4.18 4.18 0 0 1 1.44 1.3 3.54 3.54 0 0 1 .36 1.76 3.22 3.22 0 0 1-1.2 2.56 4.94 4.94 0 0 1-3.42 1.14 6 6 0 0 1-4.16-1.3 4.54 4.54 0 0 1-1.36-3.58 2 2 0 0 0-2-2H42a2 2 0 0 0-2 2 9.5 9.5 0 0 0 2.74 7.1A9.88 9.88 0 0 0 48 57.06v1.62a2 2 0 0 0 2 2h1a2 2 0 0 0 2-2v-1.7a9.1 9.1 0 0 0 4.46-2.28A8.18 8.18 0 0 0 60 48.54a8.82 8.82 0 0 0-.5-3.28z"/>
    </g>
</svg>
