<svg xmlns="http://www.w3.org/2000/svg" width="29" height="24" viewBox="0 0 29 24">
    <path fill="#D00054" fill-rule="nonzero" d="M22.997 6.065C21.686 2.422 18.284 0 14.477 0c-3.806 0-7.209 2.422-8.52 6.065C1.97 7.552-.473 11.66.077 15.952c.551 4.292 3.949 7.621 8.178 8.013h.019c.255.023.52.035.793.035.271 0 .543 0 .811-.035h9.22c.269.023.537.035.809.035 4.413.009 8.193-3.22 8.956-7.652.762-4.431-1.713-8.78-5.866-10.303v.02zm2.92 10.254c-.455 2.627-2.63 4.568-5.216 4.655a79.672 79.672 0 0 1-4.04 0c-2.89-.096-5.21-2.491-5.298-5.47-.039-1.262-.78-2.07-1.905-2.05-1.126.02-1.835.872-1.815 2.138a9.488 9.488 0 0 0 1.25 4.539l.495.843a5.18 5.18 0 0 1-3.985-1.904c-1.422-1.571-1.8-3.865-.963-5.832.846-2.15 2.478-3.395 4.714-3.507 2.91-.2 5.456 1.997 5.781 4.985.031.293.024.59.066.884.092.949.864 1.673 1.789 1.679a78.84 78.84 0 0 0 3.774 0 1.79 1.79 0 0 0 1.3-.581c.34-.367.52-.86.5-1.368a1.881 1.881 0 0 0-.54-1.35 1.766 1.766 0 0 0-1.322-.525h-1.948c-1.048-4.09-3.553-6.6-7.553-7.492.76-1.37 3.175-2.266 4.986-1.868 2.606.566 4.192 2.482 4.535 5.495.588.137 1.195.23 1.768.426 2.553.889 4.094 3.566 3.627 6.303z"/>
</svg>
