<svg xmlns="http://www.w3.org/2000/svg" width="30" height="21" viewBox="0 0 30 21">
    <path fill="#FFF" fill-rule="nonzero" d="M23.248 5.268C21.923 2.104 18.484 0 14.635 0c-3.848 0-7.287 2.104-8.612 5.268C1.99 6.56-.48 10.128.078 13.858c.557 3.728 3.992 6.62 8.267 6.96h.02c.258.02.525.03.8.03.276 0 .55 0 .821-.03h9.322c.27.02.542.03.816.03 4.462.007 8.283-2.798 9.054-6.647.771-3.85-1.731-7.627-5.93-8.95v.017zm2.261 8.389c-.452 2.217-2.613 3.855-5.183 3.93a93.18 93.18 0 0 1-4.014 0c-2.872-.082-5.177-2.104-5.265-4.619-.039-1.064-.774-1.746-1.893-1.729-1.119.017-1.823.736-1.804 1.804.03 1.35.458 2.67 1.243 3.831l.491.712c-1.524-.002-2.972-.59-3.96-1.607-1.413-1.326-1.789-3.262-.956-4.923.84-1.814 2.462-2.865 4.684-2.96 2.891-.168 5.422 1.686 5.745 4.208.03.247.023.498.066.746.09.8.857 1.412 1.776 1.417 1.25.027 2.5.024 3.751 0 .489-.003.955-.18 1.292-.49.338-.31.517-.727.497-1.155a1.472 1.472 0 0 0-.538-1.139 1.93 1.93 0 0 0-1.313-.444h-1.935c-1.041-3.452-3.53-5.57-7.506-6.323.755-1.157 3.155-1.913 4.955-1.577 2.59.478 4.165 2.095 4.506 4.638.584.116 1.188.194 1.757.36 2.537.75 4.068 3.01 3.604 5.32z"/>
</svg>
