<svg xmlns="http://www.w3.org/2000/svg" width="100" height="80" viewBox="0 0 100 80">
    <g fill="none" fill-rule="nonzero">
        <path fill="#FBB03B" d="M92.3 80H7.7a2.84 2.84 0 1 1 0-5.68h84.6a2.84 2.84 0 1 1 0 5.68"/>
        <path fill="#4A4A4A" d="M12.54 67.16A24.42 24.42 0 0 1 5.82 50c.44-9.34 6.92-24 22.52-24h.3c25.08.3 25.64 23.38 25.64 24.36a2.84 2.84 0 0 0 2.84 2.82h15.2a2.84 2.84 0 1 0 0-5.68H59.7c-1-7.4-6-26.86-31-27.16h-.38a20.2 20.2 0 0 1 .74-2c0-.12 4.36-12.44 19.76-12.64 19.74-.44 25.06 18.52 25.28 19.32a2.86 2.86 0 0 0 2 2c.64.16 16 4.18 17.82 20.48 1.24 10.68-3.22 17.2-8.3 21.16h8a27.42 27.42 0 0 0 6-21.8C97.66 30 83.78 23.66 79.06 22c-2-5.24-9.62-22-29.84-22h-.5C33.22.2 25.56 10.88 23.8 16.18A23.52 23.52 0 0 0 22.28 21C7.12 24.26.64 39.66.16 49.84A30.54 30.54 0 0 0 6.6 68.66h7.7a22 22 0 0 1-1.76-1.5"/>
    </g>
</svg>
