<svg xmlns="http://www.w3.org/2000/svg" width="45" height="40" viewBox="0 0 45 40">
    <g fill="none" fill-rule="nonzero">
        <path fill="#4A4A4A" d="M12 10v.01z"/>
        <path fill="#ED1E79" d="M15.79 34.271a4.485 4.485 0 0 0-4.794-3.245A4.495 4.495 0 0 0 7 35.221v.247a4.497 4.497 0 0 0 3.757 4.472 4.483 4.483 0 0 0 4.986-3.028c.318-.861.342-1.804.066-2.679l-.019.038zM11.482 38A2.5 2.5 0 1 1 14 35.472 2.528 2.528 0 0 1 11.482 38zM37.988 34.883A3.997 3.997 0 0 0 33.937 31 3.998 3.998 0 0 0 30 35a3.998 3.998 0 0 0 3.937 4 3.997 3.997 0 0 0 4.051-3.883c.027-.09 0-.162 0-.234zM33.505 38A2.516 2.516 0 0 1 31 35.491c.003-.413.109-.82.309-1.182a2.495 2.495 0 0 1 4.657 1.602A2.497 2.497 0 0 1 33.506 38zM12.01 10.01V10l-.01.01zM12 10.895v-8.78c0-.61-.49-1.105-1.102-1.115H3.12C2.501 1 2 1.499 2 2.114c0 .616.501 1.114 1.12 1.114h6.64v7.658c0 .298.12.584.334.794.214.21.504.325.804.32.608-.01 1.097-.5 1.102-1.105z"/>
        <path fill="#4A4A4A" d="M27.87 34.979c.018-.329.056-.656.111-.979h-9.944c.092.454.142.917.149 1.383A7.757 7.757 0 0 1 18 37h10a8.328 8.328 0 0 1-.158-1.617c0-.149.028-.277.028-.404zM44.883 21.541c-.91-7.775-7.204-10.674-9.351-11.438C34.686 7.73 31.247.203 22.323 0A13.918 13.918 0 0 0 14 2.981v3.506a11.407 11.407 0 0 1 8.323-3.883c4.284.077 8.158 2.596 10.007 6.506.2.386.364.736.49 1.049l.328.773c.173.423.355.92.51 1.325l.564.138c.4.109.791.244 1.173.404 3.807 1.456 6.487 4.946 6.941 9.036.564 4.95-1.492 7.97-3.82 9.782.436.603.765 1.279.973 1.997 0 .128.054.257.09.386 3.103-2.162 6.05-5.99 5.304-12.459zM2.771 21.803c.464-3.724 2.805-6.97 6.229-8.635h-.056c-.779 0-1.41-.62-1.41-1.384V11C3.455 13.086.68 17.008.113 21.49-.63 27.985 2.414 31.832 5.59 34c.195-.86.57-1.67 1.099-2.38-2.367-1.827-4.49-4.853-3.918-9.817z"/>
    </g>
</svg>
