<svg xmlns="http://www.w3.org/2000/svg" width="91" height="78" viewBox="0 0 91 78">
    <g fill="none" fill-rule="nonzero">
        <path fill="#4A4A4A" d="M25 20v.02z"/>
        <path fill="#ED1E79" d="M31.604 67.179c-1.129-3.985-4.953-6.573-9.056-6.13-4.102.444-7.29 3.79-7.548 7.924v.466c-.027 4.185 2.983 7.768 7.096 8.447 4.114.68 8.109-1.746 9.418-5.72a7.815 7.815 0 0 0 .125-5.06l-.035.073zM23.964 75A5 5 0 1 1 29 69.945 5.055 5.055 0 0 1 23.963 75zM75.976 68.767c-.127-4.371-3.736-7.83-8.103-7.766C63.507 61.065 60 64.627 60 69c0 4.373 3.507 7.935 7.873 8 4.367.063 7.976-3.396 8.103-7.767.054-.18 0-.323 0-.466zM68.011 74c-2.763-.01-5.001-2.25-5.011-5.018a4.95 4.95 0 0 1 .617-2.363 4.99 4.99 0 0 1 6.011-2.347 5 5 0 0 1 3.304 5.55A4.995 4.995 0 0 1 68.01 74zM25.02 20.02V20l-.02.02zM24 19.789V2.229A2.234 2.234 0 0 0 21.796 0H6.24C5.003 0 4 .998 4 2.228a2.234 2.234 0 0 0 2.24 2.229h13.28v15.314c0 .597.24 1.17.668 1.589.428.419 1.007.65 1.608.64 1.216-.02 2.194-1 2.204-2.211z"/>
        <path fill="#4A4A4A" d="M55.74 68.631A12.13 12.13 0 0 1 55.963 67H36.074c.185.756.285 1.529.298 2.305A10.88 10.88 0 0 1 36 72h20a11.65 11.65 0 0 1-.316-2.695c0-.248.056-.461.056-.674zM90.766 42.448c-1.82-15.322-14.409-21.033-18.703-22.538C70.371 15.23 63.494.399 45.647 0A28.095 28.095 0 0 0 29 5.875v6.908a22.956 22.956 0 0 1 16.647-7.651c8.568.152 16.315 5.115 20.012 12.82.4.76.728 1.45.983 2.066l.655 1.524c.346.834.71 1.813 1.019 2.61l1.128.273c.799.214 1.582.48 2.347.797 7.613 2.87 12.973 9.745 13.881 17.807 1.128 9.755-2.984 15.703-7.641 19.275a12.676 12.676 0 0 1 1.947 3.934c0 .254.109.508.181.762 6.204-4.261 12.099-11.804 10.607-24.552zM5.235 43.137C6.11 35.85 10.532 29.5 17 26.242h-.106c-1.47 0-2.662-1.212-2.662-2.708V22C6.526 26.08 1.285 33.754.213 42.523-1.189 55.231 4.561 62.758 10.56 67a12.576 12.576 0 0 1 2.076-4.657c-4.472-3.574-8.482-9.495-7.4-19.206z"/>
    </g>
</svg>
